<svg xmlns="http://www.w3.org/2000/svg" xmlns:xlink="http://www.w3.org/1999/xlink" width="800" zoomAndPan="magnify" viewBox="0 0 600 225" height="300" preserveAspectRatio="xMidYMid meet" version="1.0"><defs><g/></defs><g fill="#ed640d" fill-opacity="1"><g transform="translate(17.789062, 145.875004)"><g><path d="M 66.921875 -48.46875 C 66.921875 -43.851562 65.726562 -39.617188 63.34375 -35.765625 C 60.957031 -31.921875 57.488281 -28.78125 52.9375 -26.34375 C 48.382812 -23.90625 42.960938 -22.46875 36.671875 -22.03125 L 33.171875 -2.4375 C 31.816406 5.09375 28.128906 8.859375 22.109375 8.859375 C 18.804688 8.859375 15.757812 7.882812 12.96875 5.9375 C 10.175781 3.988281 7.9375 1.007812 6.25 -3 C 4.570312 -7.019531 3.734375 -11.957031 3.734375 -17.8125 C 3.734375 -28.8125 5.507812 -38.144531 9.0625 -45.8125 C 12.613281 -53.488281 17.382812 -59.238281 23.375 -63.0625 C 29.363281 -66.882812 35.960938 -68.796875 43.171875 -68.796875 C 48.265625 -68.796875 52.585938 -67.898438 56.140625 -66.109375 C 59.691406 -64.316406 62.375 -61.890625 64.1875 -58.828125 C 66.007812 -55.765625 66.921875 -52.3125 66.921875 -48.46875 Z M 38.140625 -30.40625 C 49.242188 -31.820312 54.796875 -37.597656 54.796875 -47.734375 C 54.796875 -51.304688 53.617188 -54.21875 51.265625 -56.46875 C 48.910156 -58.71875 45.265625 -59.84375 40.328125 -59.84375 C 34.742188 -59.84375 29.878906 -58.082031 25.734375 -54.5625 C 21.585938 -51.039062 18.390625 -46.144531 16.140625 -39.875 C 13.890625 -33.613281 12.765625 -26.472656 12.765625 -18.453125 C 12.765625 -15.097656 13.101562 -12.117188 13.78125 -9.515625 C 14.457031 -6.910156 15.320312 -4.890625 16.375 -3.453125 C 17.4375 -2.015625 18.457031 -1.296875 19.4375 -1.296875 C 20.789062 -1.296875 21.820312 -3.164062 22.53125 -6.90625 L 25.203125 -22.28125 C 23.085938 -22.601562 22.164062 -22.738281 22.4375 -22.6875 C 20.8125 -22.957031 19.753906 -23.457031 19.265625 -24.1875 C 18.785156 -24.914062 18.546875 -25.851562 18.546875 -27 C 18.546875 -28.1875 18.882812 -29.132812 19.5625 -29.84375 C 20.238281 -30.550781 21.171875 -30.90625 22.359375 -30.90625 C 22.898438 -30.90625 23.304688 -30.875 23.578125 -30.8125 C 24.878906 -30.59375 25.882812 -30.457031 26.59375 -30.40625 C 27.289062 -34.632812 28.289062 -40.300781 29.59375 -47.40625 C 29.914062 -49.25 30.660156 -50.5625 31.828125 -51.34375 C 32.992188 -52.132812 34.363281 -52.53125 35.9375 -52.53125 C 37.726562 -52.53125 39.015625 -52.191406 39.796875 -51.515625 C 40.585938 -50.835938 40.984375 -49.765625 40.984375 -48.296875 C 40.984375 -47.429688 40.925781 -46.726562 40.8125 -46.1875 Z M 38.140625 -30.40625 "/></g></g></g><g fill="#ed640d" fill-opacity="1"><g transform="translate(83.239365, 145.875004)"><g><path d="M 9.671875 0.40625 C 7.617188 0.40625 6.171875 -0.675781 5.328125 -2.84375 C 4.484375 -5.007812 4.0625 -8.476562 4.0625 -13.25 C 4.0625 -20.300781 5.066406 -27 7.078125 -33.34375 C 7.566406 -34.914062 8.363281 -36.066406 9.46875 -36.796875 C 10.582031 -37.523438 12.140625 -37.890625 14.140625 -37.890625 C 15.234375 -37.890625 15.992188 -37.753906 16.421875 -37.484375 C 16.859375 -37.210938 17.078125 -36.695312 17.078125 -35.9375 C 17.078125 -35.070312 16.671875 -33.117188 15.859375 -30.078125 C 15.316406 -27.910156 14.878906 -26.015625 14.546875 -24.390625 C 14.222656 -22.765625 13.953125 -20.757812 13.734375 -18.375 C 15.523438 -23.039062 17.53125 -26.835938 19.75 -29.765625 C 21.976562 -32.691406 24.160156 -34.773438 26.296875 -36.015625 C 28.441406 -37.265625 30.410156 -37.890625 32.203125 -37.890625 C 35.722656 -37.890625 37.484375 -36.128906 37.484375 -32.609375 C 37.484375 -31.898438 37.238281 -30.191406 36.75 -27.484375 C 36.320312 -25.316406 36.109375 -23.960938 36.109375 -23.421875 C 36.109375 -21.523438 36.785156 -20.578125 38.140625 -20.578125 C 39.648438 -20.578125 41.597656 -21.769531 43.984375 -24.15625 C 44.691406 -24.851562 45.425781 -25.203125 46.1875 -25.203125 C 46.894531 -25.203125 47.453125 -24.890625 47.859375 -24.265625 C 48.265625 -23.648438 48.46875 -22.828125 48.46875 -21.796875 C 48.46875 -19.785156 47.925781 -18.210938 46.84375 -17.078125 C 45.320312 -15.503906 43.539062 -14.160156 41.5 -13.046875 C 39.46875 -11.941406 37.316406 -11.390625 35.046875 -11.390625 C 32.171875 -11.390625 29.988281 -12.117188 28.5 -13.578125 C 27.007812 -15.046875 26.265625 -17.023438 26.265625 -19.515625 C 26.265625 -20.328125 26.347656 -21.140625 26.515625 -21.953125 C 26.617188 -23.035156 26.671875 -23.769531 26.671875 -24.15625 C 26.671875 -25.019531 26.375 -25.453125 25.78125 -25.453125 C 24.96875 -25.453125 23.894531 -24.539062 22.5625 -22.71875 C 21.238281 -20.90625 19.925781 -18.507812 18.625 -15.53125 C 17.320312 -12.550781 16.265625 -9.40625 15.453125 -6.09375 C 14.859375 -3.550781 14.164062 -1.832031 13.375 -0.9375 C 12.59375 -0.0390625 11.359375 0.40625 9.671875 0.40625 Z M 9.671875 0.40625 "/></g></g></g><g fill="#ed640d" fill-opacity="1"><g transform="translate(120.23302, 145.875004)"><g><path d="M 45.375 -24.96875 C 46.070312 -24.96875 46.609375 -24.613281 46.984375 -23.90625 C 47.367188 -23.195312 47.5625 -22.300781 47.5625 -21.21875 C 47.5625 -18.613281 46.773438 -17.070312 45.203125 -16.59375 C 41.953125 -15.445312 38.375 -14.796875 34.46875 -14.640625 C 33.445312 -10.085938 31.414062 -6.441406 28.375 -3.703125 C 25.34375 -0.960938 21.898438 0.40625 18.046875 0.40625 C 14.796875 0.40625 12.019531 -0.378906 9.71875 -1.953125 C 7.414062 -3.523438 5.664062 -5.609375 4.46875 -8.203125 C 3.28125 -10.804688 2.6875 -13.628906 2.6875 -16.671875 C 2.6875 -20.785156 3.472656 -24.457031 5.046875 -27.6875 C 6.617188 -30.914062 8.785156 -33.4375 11.546875 -35.25 C 14.304688 -37.0625 17.367188 -37.96875 20.734375 -37.96875 C 24.859375 -37.96875 28.175781 -36.546875 30.6875 -33.703125 C 33.207031 -30.859375 34.6875 -27.347656 35.125 -23.171875 C 37.675781 -23.335938 40.710938 -23.878906 44.234375 -24.796875 C 44.671875 -24.910156 45.050781 -24.96875 45.375 -24.96875 Z M 18.703125 -8.21875 C 20.429688 -8.21875 21.929688 -8.921875 23.203125 -10.328125 C 24.484375 -11.734375 25.34375 -13.765625 25.78125 -16.421875 C 24.09375 -17.554688 22.800781 -19.046875 21.90625 -20.890625 C 21.019531 -22.734375 20.578125 -24.6875 20.578125 -26.75 C 20.578125 -27.613281 20.65625 -28.484375 20.8125 -29.359375 L 20.40625 -29.359375 C 18.238281 -29.359375 16.4375 -28.3125 15 -26.21875 C 13.5625 -24.132812 12.84375 -21.195312 12.84375 -17.40625 C 12.84375 -14.414062 13.425781 -12.132812 14.59375 -10.5625 C 15.757812 -9 17.128906 -8.21875 18.703125 -8.21875 Z M 18.703125 -8.21875 "/></g></g></g><g fill="#ed640d" fill-opacity="1"><g transform="translate(156.901457, 145.875004)"><g><path d="M 9.671875 0.40625 C 7.617188 0.40625 6.171875 -0.675781 5.328125 -2.84375 C 4.484375 -5.007812 4.0625 -8.476562 4.0625 -13.25 C 4.0625 -20.300781 5.066406 -27 7.078125 -33.34375 C 7.566406 -34.914062 8.363281 -36.066406 9.46875 -36.796875 C 10.582031 -37.523438 12.140625 -37.890625 14.140625 -37.890625 C 15.234375 -37.890625 15.992188 -37.753906 16.421875 -37.484375 C 16.859375 -37.210938 17.078125 -36.695312 17.078125 -35.9375 C 17.078125 -35.070312 16.671875 -33.117188 15.859375 -30.078125 C 15.316406 -27.910156 14.878906 -26.023438 14.546875 -24.421875 C 14.222656 -22.828125 13.953125 -20.835938 13.734375 -18.453125 C 15.203125 -22.679688 16.953125 -26.257812 18.984375 -29.1875 C 21.015625 -32.113281 23.097656 -34.296875 25.234375 -35.734375 C 27.378906 -37.171875 29.40625 -37.890625 31.3125 -37.890625 C 33.207031 -37.890625 34.546875 -37.457031 35.328125 -36.59375 C 36.117188 -35.726562 36.515625 -34.398438 36.515625 -32.609375 C 36.515625 -30.867188 36 -27.722656 34.96875 -23.171875 C 34.53125 -21.222656 34.226562 -19.757812 34.0625 -18.78125 C 36.78125 -25.445312 39.789062 -30.296875 43.09375 -33.328125 C 46.40625 -36.367188 49.492188 -37.890625 52.359375 -37.890625 C 55.890625 -37.890625 57.65625 -36.128906 57.65625 -32.609375 C 57.65625 -30.492188 57.054688 -26.671875 55.859375 -21.140625 C 54.828125 -16.421875 54.3125 -13.304688 54.3125 -11.796875 C 54.3125 -9.617188 55.097656 -8.53125 56.671875 -8.53125 C 57.753906 -8.53125 59.039062 -9.191406 60.53125 -10.515625 C 62.019531 -11.847656 64.015625 -14.007812 66.515625 -17 C 67.160156 -17.75 67.890625 -18.125 68.703125 -18.125 C 69.410156 -18.125 69.96875 -17.800781 70.375 -17.15625 C 70.78125 -16.507812 70.984375 -15.613281 70.984375 -14.46875 C 70.984375 -12.300781 70.46875 -10.625 69.4375 -9.4375 C 67.101562 -6.5625 64.59375 -4.203125 61.90625 -2.359375 C 59.226562 -0.515625 56.179688 0.40625 52.765625 0.40625 C 50.003906 0.40625 47.914062 -0.390625 46.5 -1.984375 C 45.09375 -3.585938 44.390625 -5.90625 44.390625 -8.9375 C 44.390625 -10.457031 44.769531 -13.171875 45.53125 -17.078125 C 46.238281 -20.492188 46.59375 -22.851562 46.59375 -24.15625 C 46.59375 -25.019531 46.296875 -25.453125 45.703125 -25.453125 C 44.992188 -25.453125 43.988281 -24.539062 42.6875 -22.71875 C 41.382812 -20.90625 40.082031 -18.507812 38.78125 -15.53125 C 37.476562 -12.550781 36.421875 -9.40625 35.609375 -6.09375 C 35.015625 -3.5 34.320312 -1.765625 33.53125 -0.890625 C 32.75 -0.0234375 31.492188 0.40625 29.765625 0.40625 C 27.972656 0.40625 26.628906 -0.445312 25.734375 -2.15625 C 24.835938 -3.863281 24.390625 -5.9375 24.390625 -8.375 C 24.390625 -10.4375 24.660156 -13.414062 25.203125 -17.3125 C 25.640625 -20.789062 25.859375 -23.070312 25.859375 -24.15625 C 25.859375 -25.019531 25.5625 -25.453125 24.96875 -25.453125 C 24.15625 -25.453125 23.125 -24.472656 21.875 -22.515625 C 20.625 -20.566406 19.414062 -18.070312 18.25 -15.03125 C 17.082031 -12 16.148438 -9.019531 15.453125 -6.09375 C 14.859375 -3.550781 14.164062 -1.832031 13.375 -0.9375 C 12.59375 -0.0390625 11.359375 0.40625 9.671875 0.40625 Z M 9.671875 0.40625 "/></g></g></g><g fill="#ed640d" fill-opacity="1"><g transform="translate(217.392188, 145.875004)"><g><path d="M 47.328125 -18.125 C 48.023438 -18.125 48.578125 -17.800781 48.984375 -17.15625 C 49.390625 -16.507812 49.59375 -15.613281 49.59375 -14.46875 C 49.59375 -12.300781 49.082031 -10.625 48.0625 -9.4375 C 45.726562 -6.5625 43.21875 -4.203125 40.53125 -2.359375 C 37.851562 -0.515625 34.804688 0.40625 31.390625 0.40625 C 28.515625 0.40625 26.179688 -0.625 24.390625 -2.6875 C 21.304688 -0.675781 18.082031 0.351562 14.71875 0.40625 C 14.007812 10.863281 12.410156 19.601562 9.921875 26.625 C 7.429688 33.644531 3.769531 37.15625 -1.0625 37.15625 C -3.988281 37.15625 -6.15625 36.097656 -7.5625 33.984375 C -8.96875 31.867188 -9.671875 28.941406 -9.671875 25.203125 C -9.671875 19.890625 -8.453125 13.695312 -6.015625 6.625 C -3.578125 -0.445312 0.1875 -8.238281 5.28125 -16.75 C 5.28125 -24.664062 5.226562 -30.164062 5.125 -33.25 C 5.070312 -34.820312 5.691406 -36.066406 6.984375 -36.984375 C 8.285156 -37.910156 9.914062 -38.375 11.875 -38.375 C 13.007812 -38.375 13.832031 -38.144531 14.34375 -37.6875 C 14.863281 -37.226562 15.148438 -36.320312 15.203125 -34.96875 C 15.203125 -33.613281 15.226562 -32.609375 15.28125 -31.953125 C 17.019531 -34.117188 18.726562 -35.675781 20.40625 -36.625 C 22.09375 -37.570312 23.882812 -38.046875 25.78125 -38.046875 C 28.8125 -38.046875 31.289062 -36.828125 33.21875 -34.390625 C 35.144531 -31.953125 36.109375 -28.753906 36.109375 -24.796875 C 36.109375 -21.921875 35.644531 -19.128906 34.71875 -16.421875 C 33.800781 -13.710938 32.53125 -11.25 30.90625 -9.03125 C 32.039062 -8.695312 32.988281 -8.53125 33.75 -8.53125 C 35.53125 -8.53125 37.234375 -9.179688 38.859375 -10.484375 C 40.492188 -11.785156 42.582031 -13.957031 45.125 -17 C 45.78125 -17.75 46.515625 -18.125 47.328125 -18.125 Z M 15.125 -7.40625 C 17.070312 -7.832031 18.875 -8.898438 20.53125 -10.609375 C 22.1875 -12.316406 23.5 -14.429688 24.46875 -16.953125 C 25.445312 -19.472656 25.9375 -22.113281 25.9375 -24.875 C 25.9375 -26.507812 25.609375 -27.742188 24.953125 -28.578125 C 24.304688 -29.421875 23.441406 -29.84375 22.359375 -29.84375 C 20.410156 -29.84375 18.050781 -27.78125 15.28125 -23.65625 C 15.226562 -21.269531 15.203125 -17.773438 15.203125 -13.171875 C 15.203125 -10.679688 15.175781 -8.757812 15.125 -7.40625 Z M -0.40625 29.1875 C 1.050781 29.1875 2.269531 26 3.25 19.625 C 4.226562 13.257812 4.851562 5.335938 5.125 -4.140625 C 2.789062 1.273438 0.945312 6.445312 -0.40625 11.375 C -1.757812 16.3125 -2.4375 20.460938 -2.4375 23.828125 C -2.4375 25.554688 -2.234375 26.878906 -1.828125 27.796875 C -1.421875 28.722656 -0.945312 29.1875 -0.40625 29.1875 Z M -0.40625 29.1875 "/></g></g></g><g fill="#ed640d" fill-opacity="1"><g transform="translate(256.499761, 145.875004)"><g><path d="M 40.171875 -18.125 C 40.867188 -18.125 41.421875 -17.800781 41.828125 -17.15625 C 42.234375 -16.507812 42.4375 -15.613281 42.4375 -14.46875 C 42.4375 -12.300781 41.925781 -10.625 40.90625 -9.4375 C 38.570312 -6.5625 36.019531 -4.203125 33.25 -2.359375 C 30.488281 -0.515625 27.320312 0.40625 23.75 0.40625 C 12.6875 0.40625 7.15625 -7.375 7.15625 -22.9375 C 7.15625 -25.320312 7.238281 -27.734375 7.40625 -30.171875 L 4.234375 -30.171875 C 2.597656 -30.171875 1.492188 -30.46875 0.921875 -31.0625 C 0.359375 -31.65625 0.078125 -32.601562 0.078125 -33.90625 C 0.078125 -36.9375 1.296875 -38.453125 3.734375 -38.453125 L 8.375 -38.453125 C 9.289062 -44.421875 10.695312 -49.867188 12.59375 -54.796875 C 14.5 -59.734375 16.789062 -63.664062 19.46875 -66.59375 C 22.15625 -69.519531 25.046875 -70.984375 28.140625 -70.984375 C 30.410156 -70.984375 32.195312 -69.976562 33.5 -67.96875 C 34.800781 -65.96875 35.453125 -63.453125 35.453125 -60.421875 C 35.453125 -52.015625 31.925781 -44.691406 24.875 -38.453125 L 33.984375 -38.453125 C 34.859375 -38.453125 35.484375 -38.265625 35.859375 -37.890625 C 36.234375 -37.515625 36.421875 -36.8125 36.421875 -35.78125 C 36.421875 -32.039062 33.359375 -30.171875 27.234375 -30.171875 L 17.3125 -30.171875 C 17.207031 -27.453125 17.15625 -25.335938 17.15625 -23.828125 C 17.15625 -18.191406 17.816406 -14.234375 19.140625 -11.953125 C 20.472656 -9.671875 22.578125 -8.53125 25.453125 -8.53125 C 27.785156 -8.53125 29.84375 -9.234375 31.625 -10.640625 C 33.414062 -12.054688 35.53125 -14.175781 37.96875 -17 C 38.625 -17.75 39.359375 -18.125 40.171875 -18.125 Z M 25.9375 -63.1875 C 25.125 -63.1875 24.210938 -62.164062 23.203125 -60.125 C 22.203125 -58.09375 21.253906 -55.273438 20.359375 -51.671875 C 19.472656 -48.066406 18.726562 -44.070312 18.125 -39.6875 C 21.332031 -42.445312 23.734375 -45.546875 25.328125 -48.984375 C 26.929688 -52.429688 27.734375 -55.5625 27.734375 -58.375 C 27.734375 -61.582031 27.132812 -63.1875 25.9375 -63.1875 Z M 25.9375 -63.1875 "/></g></g></g><g fill="#ed640d" fill-opacity="1"><g transform="translate(288.452534, 145.875004)"><g/></g></g><g fill="#ed640d" fill-opacity="1"><g transform="translate(309.998279, 145.875004)"><g><path d="M 107.171875 -35.125 C 108.421875 -35.125 109.328125 -34.851562 109.890625 -34.3125 C 110.460938 -33.769531 110.75 -33.066406 110.75 -32.203125 C 110.75 -30.785156 110.328125 -29.535156 109.484375 -28.453125 C 108.648438 -27.367188 107.335938 -26.800781 105.546875 -26.75 C 101.265625 -26.695312 97.414062 -27.023438 94 -27.734375 C 90.207031 -19.648438 85.640625 -12.9375 80.296875 -7.59375 C 74.953125 -2.257812 69.679688 0.40625 64.484375 0.40625 C 59.710938 0.40625 56.132812 -2.125 53.75 -7.1875 C 51.363281 -12.257812 50.007812 -19.050781 49.6875 -27.5625 C 46.425781 -18.132812 42.75 -11.113281 38.65625 -6.5 C 34.570312 -1.894531 30.222656 0.40625 25.609375 0.40625 C 20.410156 0.40625 16.484375 -2.832031 13.828125 -9.3125 C 11.171875 -15.789062 9.84375 -24.503906 9.84375 -35.453125 C 9.84375 -43.421875 10.546875 -52.175781 11.953125 -61.71875 C 12.328125 -64.425781 13.015625 -66.304688 14.015625 -67.359375 C 15.023438 -68.421875 16.613281 -68.953125 18.78125 -68.953125 C 20.40625 -68.953125 21.664062 -68.597656 22.5625 -67.890625 C 23.457031 -67.191406 23.90625 -65.894531 23.90625 -64 C 23.90625 -63.613281 23.851562 -62.878906 23.75 -61.796875 C 22.113281 -50.679688 21.296875 -41.222656 21.296875 -33.421875 C 21.296875 -26.160156 21.921875 -20.550781 23.171875 -16.59375 C 24.421875 -12.632812 26.101562 -10.65625 28.21875 -10.65625 C 30.113281 -10.65625 32.398438 -12.644531 35.078125 -16.625 C 37.765625 -20.613281 40.4375 -26.523438 43.09375 -34.359375 C 45.75 -42.191406 48 -51.523438 49.84375 -62.359375 C 50.28125 -64.859375 51.078125 -66.582031 52.234375 -67.53125 C 53.398438 -68.476562 54.988281 -68.953125 57 -68.953125 C 58.675781 -68.953125 59.90625 -68.582031 60.6875 -67.84375 C 61.476562 -67.113281 61.875 -66.019531 61.875 -64.5625 C 61.875 -63.695312 61.820312 -63.019531 61.71875 -62.53125 C 60.195312 -53.695312 59.4375 -44.859375 59.4375 -36.015625 C 59.4375 -30.003906 59.640625 -25.207031 60.046875 -21.625 C 60.453125 -18.050781 61.238281 -15.328125 62.40625 -13.453125 C 63.570312 -11.585938 65.265625 -10.65625 67.484375 -10.65625 C 70.085938 -10.65625 72.988281 -12.617188 76.1875 -16.546875 C 79.382812 -20.472656 82.3125 -25.363281 84.96875 -31.21875 C 81.664062 -33.28125 79.171875 -35.953125 77.484375 -39.234375 C 75.804688 -42.515625 74.96875 -46.296875 74.96875 -50.578125 C 74.96875 -54.859375 75.628906 -58.472656 76.953125 -61.421875 C 78.285156 -64.378906 80.101562 -66.585938 82.40625 -68.046875 C 84.707031 -69.515625 87.269531 -70.25 90.09375 -70.25 C 93.5625 -70.25 96.3125 -69 98.34375 -66.5 C 100.375 -64.007812 101.390625 -60.597656 101.390625 -56.265625 C 101.390625 -50.140625 100.0625 -43.335938 97.40625 -35.859375 C 100.175781 -35.367188 103.429688 -35.125 107.171875 -35.125 Z M 83.1875 -51.140625 C 83.1875 -45.828125 84.894531 -41.898438 88.3125 -39.359375 C 90.414062 -45.429688 91.46875 -50.441406 91.46875 -54.390625 C 91.46875 -56.671875 91.171875 -58.335938 90.578125 -59.390625 C 89.984375 -60.453125 89.171875 -60.984375 88.140625 -60.984375 C 86.679688 -60.984375 85.488281 -60.128906 84.5625 -58.421875 C 83.644531 -56.710938 83.1875 -54.285156 83.1875 -51.140625 Z M 83.1875 -51.140625 "/></g></g></g><g fill="#ed640d" fill-opacity="1"><g transform="translate(408.946136, 145.875004)"><g><path d="M 14.5625 -43.265625 C 12.28125 -43.265625 10.566406 -43.789062 9.421875 -44.84375 C 8.285156 -45.894531 7.71875 -47.375 7.71875 -49.28125 C 7.71875 -51.175781 8.460938 -52.757812 9.953125 -54.03125 C 11.453125 -55.300781 13.3125 -55.9375 15.53125 -55.9375 C 17.539062 -55.9375 19.164062 -55.445312 20.40625 -54.46875 C 21.65625 -53.5 22.28125 -52.117188 22.28125 -50.328125 C 22.28125 -48.160156 21.570312 -46.441406 20.15625 -45.171875 C 18.75 -43.898438 16.882812 -43.265625 14.5625 -43.265625 Z M 13.90625 0.40625 C 10.382812 0.40625 7.820312 -0.835938 6.21875 -3.328125 C 4.625 -5.828125 3.828125 -9.132812 3.828125 -13.25 C 3.828125 -15.6875 4.132812 -18.816406 4.75 -22.640625 C 5.375 -26.460938 6.175781 -30.03125 7.15625 -33.34375 C 7.644531 -35.070312 8.296875 -36.257812 9.109375 -36.90625 C 9.921875 -37.5625 11.222656 -37.890625 13.015625 -37.890625 C 15.773438 -37.890625 17.15625 -36.96875 17.15625 -35.125 C 17.15625 -33.769531 16.640625 -30.625 15.609375 -25.6875 C 14.304688 -19.726562 13.65625 -15.691406 13.65625 -13.578125 C 13.65625 -11.953125 13.875 -10.703125 14.3125 -9.828125 C 14.75 -8.960938 15.476562 -8.53125 16.5 -8.53125 C 17.476562 -8.53125 18.695312 -9.207031 20.15625 -10.5625 C 21.625 -11.925781 23.578125 -14.070312 26.015625 -17 C 26.671875 -17.75 27.40625 -18.125 28.21875 -18.125 C 28.914062 -18.125 29.46875 -17.800781 29.875 -17.15625 C 30.28125 -16.507812 30.484375 -15.613281 30.484375 -14.46875 C 30.484375 -12.300781 29.972656 -10.625 28.953125 -9.4375 C 23.578125 -2.875 18.5625 0.40625 13.90625 0.40625 Z M 13.90625 0.40625 "/></g></g></g><g fill="#ed640d" fill-opacity="1"><g transform="translate(428.947112, 145.875004)"><g><path d="M 44.484375 -18.125 C 45.179688 -18.125 45.734375 -17.800781 46.140625 -17.15625 C 46.546875 -16.507812 46.75 -15.613281 46.75 -14.46875 C 46.75 -12.46875 46.234375 -10.789062 45.203125 -9.4375 C 42.660156 -6.125 39.503906 -3.519531 35.734375 -1.625 C 31.960938 0.269531 27.722656 1.21875 23.015625 1.21875 C 19.328125 1.21875 16.125 0.664062 13.40625 -0.4375 C 10.695312 -1.550781 8.625 -3.070312 7.1875 -5 C 5.757812 -6.925781 5.046875 -9.082031 5.046875 -11.46875 C 5.046875 -15.039062 6.476562 -18.207031 9.34375 -20.96875 C 12.21875 -23.738281 16.335938 -26.398438 21.703125 -28.953125 L 8.375 -28.625 C 7.1875 -28.570312 6.28125 -28.988281 5.65625 -29.875 C 5.03125 -30.769531 4.71875 -31.84375 4.71875 -33.09375 C 4.71875 -34.394531 5.03125 -35.546875 5.65625 -36.546875 C 6.28125 -37.546875 7.132812 -38.046875 8.21875 -38.046875 C 10.707031 -38.046875 14.039062 -37.859375 18.21875 -37.484375 C 19.082031 -37.429688 20.664062 -37.320312 22.96875 -37.15625 C 25.269531 -37 27.207031 -36.921875 28.78125 -36.921875 C 29.320312 -36.921875 30.351562 -37.132812 31.875 -37.5625 C 32.144531 -37.613281 32.671875 -37.75 33.453125 -37.96875 C 34.242188 -38.1875 34.910156 -38.296875 35.453125 -38.296875 C 36.316406 -38.296875 37.03125 -37.914062 37.59375 -37.15625 C 38.164062 -36.394531 38.453125 -35.226562 38.453125 -33.65625 C 38.453125 -31.925781 38.046875 -30.570312 37.234375 -29.59375 C 36.421875 -28.625 35.148438 -27.757812 33.421875 -27 C 28.484375 -24.882812 24.390625 -22.617188 21.140625 -20.203125 C 17.890625 -17.796875 16.265625 -15.398438 16.265625 -13.015625 C 16.265625 -11.492188 16.96875 -10.242188 18.375 -9.265625 C 19.78125 -8.296875 21.867188 -7.8125 24.640625 -7.8125 C 27.671875 -7.8125 30.742188 -8.566406 33.859375 -10.078125 C 36.984375 -11.597656 39.789062 -13.90625 42.28125 -17 C 42.9375 -17.75 43.671875 -18.125 44.484375 -18.125 Z M 44.484375 -18.125 "/></g></g></g><g fill="#ed640d" fill-opacity="1"><g transform="translate(465.127698, 145.875004)"><g><path d="M 13.90625 0.40625 C 10.539062 0.40625 7.851562 -0.8125 5.84375 -3.25 C 3.84375 -5.6875 2.84375 -8.882812 2.84375 -12.84375 C 2.84375 -17.1875 3.84375 -21.296875 5.84375 -25.171875 C 7.851562 -29.046875 10.523438 -32.160156 13.859375 -34.515625 C 17.191406 -36.867188 20.726562 -38.046875 24.46875 -38.046875 C 25.664062 -38.046875 26.46875 -37.816406 26.875 -37.359375 C 27.28125 -36.898438 27.617188 -36.078125 27.890625 -34.890625 C 29.023438 -35.097656 30.21875 -35.203125 31.46875 -35.203125 C 34.125 -35.203125 35.453125 -34.253906 35.453125 -32.359375 C 35.453125 -31.222656 35.046875 -28.515625 34.234375 -24.234375 C 32.984375 -17.992188 32.359375 -13.65625 32.359375 -11.21875 C 32.359375 -10.40625 32.5625 -9.753906 32.96875 -9.265625 C 33.375 -8.773438 33.90625 -8.53125 34.5625 -8.53125 C 35.59375 -8.53125 36.835938 -9.191406 38.296875 -10.515625 C 39.765625 -11.847656 41.742188 -14.007812 44.234375 -17 C 44.878906 -17.75 45.609375 -18.125 46.421875 -18.125 C 47.128906 -18.125 47.6875 -17.800781 48.09375 -17.15625 C 48.5 -16.507812 48.703125 -15.613281 48.703125 -14.46875 C 48.703125 -12.300781 48.1875 -10.625 47.15625 -9.4375 C 44.9375 -6.664062 42.578125 -4.332031 40.078125 -2.4375 C 37.585938 -0.539062 35.175781 0.40625 32.84375 0.40625 C 31.0625 0.40625 29.421875 -0.203125 27.921875 -1.421875 C 26.429688 -2.640625 25.3125 -4.304688 24.5625 -6.421875 C 21.738281 -1.867188 18.1875 0.40625 13.90625 0.40625 Z M 16.828125 -7.8125 C 18.023438 -7.8125 19.164062 -8.515625 20.25 -9.921875 C 21.332031 -11.328125 22.117188 -13.195312 22.609375 -15.53125 L 25.609375 -30.484375 C 23.335938 -30.429688 21.238281 -29.578125 19.3125 -27.921875 C 17.382812 -26.273438 15.851562 -24.09375 14.71875 -21.375 C 13.582031 -18.664062 13.015625 -15.796875 13.015625 -12.765625 C 13.015625 -11.085938 13.351562 -9.84375 14.03125 -9.03125 C 14.707031 -8.21875 15.640625 -7.8125 16.828125 -7.8125 Z M 16.828125 -7.8125 "/></g></g></g><g fill="#ed640d" fill-opacity="1"><g transform="translate(503.340893, 145.875004)"><g><path d="M 9.671875 0.40625 C 7.617188 0.40625 6.171875 -0.675781 5.328125 -2.84375 C 4.484375 -5.007812 4.0625 -8.476562 4.0625 -13.25 C 4.0625 -20.300781 5.066406 -27 7.078125 -33.34375 C 7.566406 -34.914062 8.363281 -36.066406 9.46875 -36.796875 C 10.582031 -37.523438 12.140625 -37.890625 14.140625 -37.890625 C 15.234375 -37.890625 15.992188 -37.753906 16.421875 -37.484375 C 16.859375 -37.210938 17.078125 -36.695312 17.078125 -35.9375 C 17.078125 -35.070312 16.671875 -33.117188 15.859375 -30.078125 C 15.316406 -27.910156 14.878906 -26.015625 14.546875 -24.390625 C 14.222656 -22.765625 13.953125 -20.757812 13.734375 -18.375 C 15.523438 -23.039062 17.53125 -26.835938 19.75 -29.765625 C 21.976562 -32.691406 24.160156 -34.773438 26.296875 -36.015625 C 28.441406 -37.265625 30.410156 -37.890625 32.203125 -37.890625 C 35.722656 -37.890625 37.484375 -36.128906 37.484375 -32.609375 C 37.484375 -31.898438 37.238281 -30.191406 36.75 -27.484375 C 36.320312 -25.316406 36.109375 -23.960938 36.109375 -23.421875 C 36.109375 -21.523438 36.785156 -20.578125 38.140625 -20.578125 C 39.648438 -20.578125 41.597656 -21.769531 43.984375 -24.15625 C 44.691406 -24.851562 45.425781 -25.203125 46.1875 -25.203125 C 46.894531 -25.203125 47.453125 -24.890625 47.859375 -24.265625 C 48.265625 -23.648438 48.46875 -22.828125 48.46875 -21.796875 C 48.46875 -19.785156 47.925781 -18.210938 46.84375 -17.078125 C 45.320312 -15.503906 43.539062 -14.160156 41.5 -13.046875 C 39.46875 -11.941406 37.316406 -11.390625 35.046875 -11.390625 C 32.171875 -11.390625 29.988281 -12.117188 28.5 -13.578125 C 27.007812 -15.046875 26.265625 -17.023438 26.265625 -19.515625 C 26.265625 -20.328125 26.347656 -21.140625 26.515625 -21.953125 C 26.617188 -23.035156 26.671875 -23.769531 26.671875 -24.15625 C 26.671875 -25.019531 26.375 -25.453125 25.78125 -25.453125 C 24.96875 -25.453125 23.894531 -24.539062 22.5625 -22.71875 C 21.238281 -20.90625 19.925781 -18.507812 18.625 -15.53125 C 17.320312 -12.550781 16.265625 -9.40625 15.453125 -6.09375 C 14.859375 -3.550781 14.164062 -1.832031 13.375 -0.9375 C 12.59375 -0.0390625 11.359375 0.40625 9.671875 0.40625 Z M 9.671875 0.40625 "/></g></g></g><g fill="#ed640d" fill-opacity="1"><g transform="translate(540.334558, 145.875004)"><g><path d="M 50.09375 -18.125 C 50.789062 -18.125 51.34375 -17.800781 51.75 -17.15625 C 52.15625 -16.507812 52.359375 -15.613281 52.359375 -14.46875 C 52.359375 -12.300781 51.84375 -10.625 50.8125 -9.4375 C 48.59375 -6.71875 46.15625 -4.394531 43.5 -2.46875 C 40.84375 -0.550781 38.210938 0.40625 35.609375 0.40625 C 31.492188 0.40625 28.351562 -2.003906 26.1875 -6.828125 C 23.90625 -3.953125 21.910156 -2.023438 20.203125 -1.046875 C 18.492188 -0.078125 16.503906 0.40625 14.234375 0.40625 C 10.921875 0.40625 8.191406 -0.828125 6.046875 -3.296875 C 3.910156 -5.765625 2.84375 -8.972656 2.84375 -12.921875 C 2.84375 -17.265625 3.765625 -21.289062 5.609375 -25 C 7.453125 -28.71875 9.984375 -31.753906 13.203125 -34.109375 C 16.429688 -36.460938 20.050781 -37.859375 24.0625 -38.296875 C 25.09375 -48.816406 27.054688 -57.800781 29.953125 -65.25 C 32.859375 -72.707031 36.671875 -76.4375 41.390625 -76.4375 C 43.722656 -76.4375 45.660156 -75.378906 47.203125 -73.265625 C 48.742188 -71.148438 49.515625 -67.953125 49.515625 -63.671875 C 49.515625 -57.597656 48.023438 -50.492188 45.046875 -42.359375 C 42.066406 -34.234375 38.082031 -25.882812 33.09375 -17.3125 C 33.3125 -14.175781 33.785156 -11.925781 34.515625 -10.5625 C 35.242188 -9.207031 36.179688 -8.53125 37.328125 -8.53125 C 38.785156 -8.53125 40.273438 -9.179688 41.796875 -10.484375 C 43.316406 -11.785156 45.347656 -13.957031 47.890625 -17 C 48.546875 -17.75 49.28125 -18.125 50.09375 -18.125 Z M 40.5 -68.46875 C 39.46875 -68.46875 38.4375 -66.632812 37.40625 -62.96875 C 36.375 -59.3125 35.488281 -54.53125 34.75 -48.625 C 34.019531 -42.71875 33.492188 -36.535156 33.171875 -30.078125 C 39.242188 -43.304688 42.28125 -53.929688 42.28125 -61.953125 C 42.28125 -64.015625 42.101562 -65.613281 41.75 -66.75 C 41.394531 -67.894531 40.976562 -68.46875 40.5 -68.46875 Z M 17.078125 -7.8125 C 18.109375 -7.8125 19.132812 -8.226562 20.15625 -9.0625 C 21.1875 -9.90625 22.488281 -11.460938 24.0625 -13.734375 C 23.519531 -16.660156 23.25 -19.941406 23.25 -23.578125 C 23.25 -24.878906 23.304688 -26.992188 23.421875 -29.921875 C 20.441406 -29.003906 17.960938 -27.015625 15.984375 -23.953125 C 14.003906 -20.890625 13.015625 -17.484375 13.015625 -13.734375 C 13.015625 -9.785156 14.367188 -7.8125 17.078125 -7.8125 Z M 17.078125 -7.8125 "/></g></g></g></svg>